<svg xmlns="http://www.w3.org/2000/svg" viewBox="0 0 432 374.11" width="432pt" height="374pt">
<g class="graph" id="graph0" transform="scale(0.308571) rotate(0) translate(4 1208.4)">
<title>unix</title>
<polygon fill="white" stroke="none" points="-4,4 -4,-1208.4 1396,-1208.4 1396,4 -4,4" />
<text font-family="Helvetica,sans-Serif" font-size="36" font-style="oblique" text-anchor="middle" x="696" y="-58">Object Oriented Graphs</text>
<text font-family="Helvetica,sans-Serif" font-size="36" font-style="oblique" text-anchor="middle" x="696" y="-14.8">Stephen North, 3/19/93</text>
<!-- 5th Edition -->
<g class="node" id="node1"><title>5th Edition</title>
<polygon fill="#ee8262" stroke="#ee8262" points="940.772,-1181.83 951.297,-1197.32 918.068,-1204.15 842.374,-1196.84 781.479,-1182.31 785.719,-1170.84 838.854,-1165.53 889.224,-1164.57 918.213,-1169.21 940.772,-1181.83" />
<text font-family="Helvetica-Outline" font-size="14" text-anchor="middle" x="874" y="-1177.2">5th Edition</text>
</g>
<!-- 6th Edition -->
<g class="node" id="node2"><title>6th Edition</title>
<polygon fill="deepskyblue" stroke="deepskyblue" points="773.316,-1113.72 679.828,-1121.66 557.556,-1102.98 584.886,-1083.97 699.413,-1089.67 773.316,-1113.72" />
<text font-family="Helvetica-Outline" font-size="14" text-anchor="middle" x="659" y="-1098.2">6th Edition</text>
</g>
<!-- 5th Edition&#45;&gt;6th Edition -->
<g class="edge" id="edge1"><title>5th Edition-&gt;6th Edition</title>
<path fill="none" stroke="black" d="M 833.812 -1166.01 C 800.118 -1153.94 751.661 -1136.59 714.306 -1123.21" />
<polygon fill="black" stroke="black" points="715.171,-1119.8 704.576,-1119.72 712.811,-1126.39 715.171,-1119.8" />
</g>
<!-- PWB 1.0 -->
<g class="node" id="node3"><title>PWB 1.0</title>
<polygon fill="#eeb422" stroke="#eeb422" points="1036.99,-1120.69 995.576,-1120.52 960.188,-1109.61 951.561,-1094.34 974.899,-1083.92 1016.53,-1084.47 1051.92,-1095.38 1060.33,-1110.27 1036.99,-1120.69" />
<text font-family="Helvetica-Outline" font-size="14" text-anchor="middle" x="1006" y="-1098.2">PWB 1.0</text>
</g>
<!-- 5th Edition&#45;&gt;PWB 1.0 -->
<g class="edge" id="edge2"><title>5th Edition-&gt;PWB 1.0</title>
<path fill="none" stroke="black" d="M 898.828 -1165.92 C 920.19 -1153.46 951.131 -1135.41 974.283 -1121.9" />
<polygon fill="black" stroke="black" points="976.176,-1124.85 983.05,-1116.79 972.648,-1118.8 976.176,-1124.85" />
</g>
<!-- LSX -->
<g class="node" id="node4"><title>LSX</title>
<polygon fill="#eec591" stroke="#eec591" points="931.08,-1015.74 916.838,-1025.37 890.287,-1030.58 869.595,-1030.26 855.643,-1022.53 846.159,-1008.94 851.325,-997.201 879.519,-995.307 915.554,-1003.68 931.08,-1015.74" />
<text font-family="Helvetica-Outline" font-size="14" text-anchor="middle" x="884" y="-1010.2">LSX</text>
</g>
<!-- 6th Edition&#45;&gt;LSX -->
<g class="edge" id="edge3"><title>6th Edition-&gt;LSX</title>
<path fill="none" stroke="black" d="M 700.856 -1090 C 735.325 -1080.07 785.153 -1064.45 827 -1046.4 C 836.442 -1042.33 846.399 -1037.22 855.302 -1032.33" />
<polygon fill="black" stroke="black" points="857.13,-1035.31 864.133,-1027.36 853.7,-1029.21 857.13,-1035.31" />
</g>
<!-- 1 BSD -->
<g class="node" id="node5"><title>1 BSD</title>
<polygon fill="#ffd700" stroke="#ffd700" points="259.987,-1019.34 247.34,-1033.69 202.964,-1032.16 166.898,-1017.26 172.925,-1001.56 206.934,-994.924 240.952,-1001.87 259.987,-1019.34" />
<text font-family="Helvetica-Outline" font-size="14" text-anchor="middle" x="214" y="-1010.2">1 BSD</text>
</g>
<!-- 6th Edition&#45;&gt;1 BSD -->
<g class="edge" id="edge4"><title>6th Edition-&gt;1 BSD</title>
<path fill="none" stroke="black" d="M 573.22 -1092.06 C 501.456 -1083.27 396.705 -1068.2 307 -1046.4 C 291.95 -1042.74 275.849 -1037.77 261.345 -1032.88" />
<polygon fill="black" stroke="black" points="262.186,-1029.46 251.591,-1029.52 259.908,-1036.08 262.186,-1029.46" />
</g>
<!-- Mini Unix -->
<g class="node" id="node6"><title>Mini Unix</title>
<polygon fill="greenyellow" stroke="greenyellow" points="620.675,-1032.4 504.389,-1031 534.151,-996.434 644.785,-997.762 620.675,-1032.4" />
<text font-family="Helvetica-Outline" font-size="14" text-anchor="middle" x="576" y="-1010.2">Mini Unix</text>
</g>
<!-- 6th Edition&#45;&gt;Mini Unix -->
<g class="edge" id="edge5"><title>6th Edition-&gt;Mini Unix</title>
<path fill="none" stroke="black" d="M 644.92 -1086.81 C 632.474 -1073.92 614.073 -1054.85 599.415 -1039.66" />
<polygon fill="black" stroke="black" points="601.605,-1036.89 592.142,-1032.13 596.568,-1041.75 601.605,-1036.89" />
</g>
<!-- Wollongong -->
<g class="node" id="node7"><title>Wollongong</title>
<polygon fill="darkseagreen" stroke="darkseagreen" points="757.55,-1033.8 670.414,-1022.15 682.208,-999.789 781.345,-999.749 818.483,-1016.51 757.55,-1033.8" />
<text font-family="Helvetica-Outline" font-size="14" text-anchor="middle" x="742" y="-1010.2">Wollongong</text>
</g>
<!-- 6th Edition&#45;&gt;Wollongong -->
<g class="edge" id="edge6"><title>6th Edition-&gt;Wollongong</title>
<path fill="none" stroke="black" d="M 671.969 -1087.96 C 685.055 -1074.4 705.479 -1053.24 720.9 -1037.26" />
<polygon fill="black" stroke="black" points="723.588,-1039.52 728.014,-1029.89 718.551,-1034.66 723.588,-1039.52" />
</g>
<!-- Interdata -->
<g class="node" id="node8"><title>Interdata</title>
<polygon fill="#1e90ff" stroke="#1e90ff" points="407.704,-1039.59 315.863,-1004.42 418.466,-998.466 461.967,-1015.12 407.704,-1039.59" />
<text font-family="Helvetica-Outline" font-size="14" text-anchor="middle" x="401" y="-1010.2">Interdata</text>
</g>
<!-- 6th Edition&#45;&gt;Interdata -->
<g class="edge" id="edge7"><title>6th Edition-&gt;Interdata</title>
<path fill="none" stroke="black" d="M 610.472 -1085.22 C 563.147 -1069.45 491.764 -1045.65 445.767 -1030.32" />
<polygon fill="black" stroke="black" points="446.666,-1026.93 436.072,-1027.09 444.452,-1033.57 446.666,-1026.93" />
</g>
<!-- PWB 1.2 -->
<g class="node" id="node28"><title>PWB 1.2</title>
<polygon fill="cyan" stroke="cyan" points="1027.43,-1043.9 980.049,-1040.02 949.857,-1009.37 961.941,-982.515 1009.56,-987.14 1053.45,-1008.97 1059.72,-1028.89 1027.43,-1043.9" />
<text font-family="Helvetica-Outline" font-size="14" text-anchor="middle" x="1006" y="-1010.2">PWB 1.2</text>
</g>
<!-- PWB 1.0&#45;&gt;PWB 1.2 -->
<g class="edge" id="edge31"><title>PWB 1.0-&gt;PWB 1.2</title>
<path fill="none" stroke="black" d="M 1006 -1084 C 1006 -1074.92 1006 -1063.45 1006 -1052.51" />
<polygon fill="black" stroke="black" points="1009.5,-1052.26 1006,-1042.26 1002.5,-1052.26 1009.5,-1052.26" />
</g>
<!-- USG 1.0 -->
<g class="node" id="node29"><title>USG 1.0</title>
<polygon fill="blue" stroke="blue" points="1210.32,-1039.6 1081,-1008.53 1181.88,-998.378 1234.8,-1011.09 1210.32,-1039.6" />
<text font-family="Helvetica-Outline" font-size="14" text-anchor="middle" x="1177" y="-1010.2">USG 1.0</text>
</g>
<!-- PWB 1.0&#45;&gt;USG 1.0 -->
<g class="edge" id="edge32"><title>PWB 1.0-&gt;USG 1.0</title>
<path fill="none" stroke="black" d="M 1031.23 -1088.71 C 1061.76 -1073.36 1113.13 -1047.52 1146.03 -1030.98" />
<polygon fill="black" stroke="black" points="1147.83,-1033.99 1155.19,-1026.37 1144.69,-1027.73 1147.83,-1033.99" />
</g>
<!-- 2 BSD -->
<g class="node" id="node19"><title>2 BSD</title>
<polygon fill="blanchedalmond" stroke="blanchedalmond" points="134.213,-582.488 96.6235,-581.811 76.6688,-568.9 89.3434,-553.353 125.071,-546.754 156.995,-554.251 161.086,-570.243 134.213,-582.488" />
<text font-family="Helvetica-Outline" font-size="14" text-anchor="middle" x="120" y="-561.2">2 BSD</text>
</g>
<!-- 1 BSD&#45;&gt;2 BSD -->
<g class="edge" id="edge19"><title>1 BSD-&gt;2 BSD</title>
<path fill="none" stroke="black" d="M 202.111 -995.701 C 181.661 -963.489 142 -892.498 142 -826.4 C 142 -826.4 142 -826.4 142 -732.4 C 142 -682.513 132.115 -624.918 125.597 -592.364" />
<polygon fill="black" stroke="black" points="128.976,-591.422 123.535,-582.332 122.12,-592.832 128.976,-591.422" />
</g>
<!-- Unix/TS 3.0 -->
<g class="node" id="node9"><title>Unix/TS 3.0</title>
<polygon fill="#eed2ee" stroke="#eed2ee" points="1010.09,-748.852 979.411,-759.916 895.695,-752.01 807.977,-729.766 794.747,-713.088 863.756,-711.745 947.472,-719.65 996.856,-732.173 1010.09,-748.852" />
<text font-family="Helvetica-Outline" font-size="14" text-anchor="middle" x="912" y="-729.2">Unix/TS 3.0</text>
</g>
<!-- Interdata&#45;&gt;Unix/TS 3.0 -->
<g class="edge" id="edge8"><title>Interdata-&gt;Unix/TS 3.0</title>
<path fill="none" stroke="black" d="M 425.553 -1000.95 C 476.776 -974.836 598.527 -911.961 698 -854.4 C 740.163 -830.002 748.619 -820.417 791 -796.4 C 818.013 -781.092 849.212 -765.146 873.163 -753.26" />
<polygon fill="black" stroke="black" points="874.875,-756.318 882.291,-748.752 871.775,-750.042 874.875,-756.318" />
</g>
<!-- PWB 2.0 -->
<g class="node" id="node10"><title>PWB 2.0</title>
<polygon fill="#a2cd5a" stroke="#a2cd5a" points="918.043,-935.162 847.462,-938.793 750.86,-917.776 763.957,-901.638 854.097,-902.263 911.581,-914.769 918.043,-935.162" />
<text font-family="Helvetica-Outline" font-size="14" text-anchor="middle" x="841" y="-914.2">PWB 2.0</text>
</g>
<!-- Interdata&#45;&gt;PWB 2.0 -->
<g class="edge" id="edge9"><title>Interdata-&gt;PWB 2.0</title>
<path fill="none" stroke="black" d="M 429.434 -1002.62 C 447.893 -995.97 472.598 -987.726 495 -982.4 C 600.363 -957.35 629.859 -967.914 736 -946.4 C 755.456 -942.456 776.703 -937.179 794.962 -932.337" />
<polygon fill="black" stroke="black" points="796.019,-935.677 804.769,-929.703 794.203,-928.917 796.019,-935.677" />
</g>
<!-- 7th Edition -->
<g class="node" id="node11"><title>7th Edition</title>
<polygon fill="chocolate" stroke="chocolate" points="452.472,-926.215 430.966,-937.608 398.014,-941.664 363.503,-935.103 341.644,-921.092 344.127,-907.123 371.034,-899.192 409.387,-898.598 441.836,-903.836 457.018,-913.568 452.472,-926.215" />
<text font-family="Helvetica-Outline" font-size="14" text-anchor="middle" x="401" y="-914.2">7th Edition</text>
</g>
<!-- Interdata&#45;&gt;7th Edition -->
<g class="edge" id="edge10"><title>Interdata-&gt;7th Edition</title>
<path fill="none" stroke="black" d="M 401 -999.123 C 401 -986.568 401 -967.829 401 -951.672" />
<polygon fill="black" stroke="black" points="404.5,-951.519 401,-941.519 397.5,-951.519 404.5,-951.519" />
</g>
<!-- TS 4.0 -->
<g class="node" id="node38"><title>TS 4.0</title>
<polygon fill="crimson" stroke="crimson" points="1053.26,-586.629 1030.82,-591.409 989.343,-586.254 950.689,-576.269 927.325,-564.07 920.751,-550.442 931.184,-539.391 960.646,-538.275 1003.89,-550.656 1042.1,-570.606 1053.26,-586.629" />
<text font-family="Helvetica-Outline" font-size="14" text-anchor="middle" x="981" y="-561.2">TS 4.0</text>
</g>
<!-- Unix/TS 3.0&#45;&gt;TS 4.0 -->
<g class="edge" id="edge44"><title>Unix/TS 3.0-&gt;TS 4.0</title>
<path fill="none" stroke="black" d="M 918.491 -716.783 C 930.4 -688.134 955.841 -626.929 970.327 -592.078" />
<polygon fill="black" stroke="black" points="973.666,-593.162 974.273,-582.585 967.202,-590.475 973.666,-593.162" />
</g>
<!-- PWB 2.0&#45;&gt;Unix/TS 3.0 -->
<g class="edge" id="edge42"><title>PWB 2.0-&gt;Unix/TS 3.0</title>
<path fill="none" stroke="black" d="M 828.324 -902.002 C 810.308 -878.12 781.624 -831.274 802 -796.4 C 815.015 -774.124 839.311 -759.227 861.765 -749.631" />
<polygon fill="black" stroke="black" points="863.256,-752.804 871.237,-745.837 860.653,-746.306 863.256,-752.804" />
</g>
<!-- 8th Edition -->
<g class="node" id="node12"><title>8th Edition</title>
<polygon fill="#00c5cd" stroke="#00c5cd" points="724.818,-488.58 670.08,-473.961 707.786,-444.493 865.316,-486.566 724.818,-488.58" />
<text font-family="Helvetica-Outline" font-size="14" text-anchor="middle" x="742" y="-469.2">8th Edition</text>
</g>
<!-- 7th Edition&#45;&gt;8th Edition -->
<g class="edge" id="edge11"><title>7th Edition-&gt;8th Edition</title>
<path fill="none" stroke="black" d="M 448.05 -907.585 C 521.932 -891.975 657.568 -862.429 665 -854.4 C 701.68 -814.772 684 -788.398 684 -734.4 C 684 -734.4 684 -734.4 684 -648.4 C 684 -592.129 711.638 -530.631 728.757 -497.937" />
<polygon fill="black" stroke="black" points="732.042,-499.219 733.69,-488.753 725.875,-495.907 732.042,-499.219" />
</g>
<!-- 32V -->
<g class="node" id="node13"><title>32V</title>
<polygon fill="#4f94cd" stroke="#4f94cd" points="651.25,-830.471 654.26,-847.032 602.582,-843.999 551.973,-826.961 557.381,-812.051 590.4,-805.723 620.155,-811.562 651.25,-830.471" />
<text font-family="Helvetica-Outline" font-size="14" text-anchor="middle" x="604" y="-821.2">32V</text>
</g>
<!-- 7th Edition&#45;&gt;32V -->
<g class="edge" id="edge12"><title>7th Edition-&gt;32V</title>
<path fill="none" stroke="black" d="M 434.622 -902.627 C 463.429 -889.936 506.003 -871.097 543 -854.4 C 552.381 -850.166 562.549 -845.521 571.845 -841.252" />
<polygon fill="black" stroke="black" points="573.526,-844.332 581.148,-836.973 570.6,-837.973 573.526,-844.332" />
</g>
<!-- V7M -->
<g class="node" id="node14"><title>V7M</title>
<polygon fill="navy" stroke="navy" points="108.178,-739.76 101.61,-749.915 76.8568,-753.762 52.6764,-753.059 34.7516,-746.841 18.4291,-733.494 6.38961,-716.885 12.5357,-706.583 43.8235,-709.752 84.7485,-723.948 108.178,-739.76" />
<text font-family="Helvetica-Outline" font-size="14" text-anchor="middle" x="54" y="-729.2">V7M</text>
</g>
<!-- 7th Edition&#45;&gt;V7M -->
<g class="edge" id="edge13"><title>7th Edition-&gt;V7M</title>
<path fill="none" stroke="black" d="M 343.635 -909.356 C 296.458 -900.901 229.128 -884.497 177 -854.4 C 135.323 -830.337 97.3311 -788.952 74.9286 -761.63" />
<polygon fill="black" stroke="black" points="77.4887,-759.229 68.4897,-753.637 72.0374,-763.62 77.4887,-759.229" />
</g>
<!-- Ultrix&#45;11 -->
<g class="node" id="node15"><title>Ultrix-11</title>
<polygon fill="#698b69" stroke="#698b69" points="185.71,-372.846 187.455,-383.776 163.435,-393.035 133.683,-397.789 105.416,-395.956 76.0085,-387.363 52.5448,-375.024 54.8468,-364.356 92.8943,-360.14 148.007,-363.715 185.71,-372.846" />
<text font-family="Helvetica-Outline" font-size="14" text-anchor="middle" x="120" y="-375.2">Ultrix-11</text>
</g>
<!-- 7th Edition&#45;&gt;Ultrix&#45;11 -->
<g class="edge" id="edge14"><title>7th Edition-&gt;Ultrix-11</title>
<path fill="none" stroke="black" d="M 342.91 -913.894 C 299.715 -908.061 242.795 -892.973 210 -854.4 C 175.024 -813.261 191 -788.398 191 -734.4 C 191 -734.4 191 -734.4 191 -564.4 C 191 -504.68 158.043 -440.927 137.037 -406.356" />
<polygon fill="black" stroke="black" points="139.977,-404.456 131.724,-397.812 134.032,-408.152 139.977,-404.456" />
</g>
<!-- Xenix -->
<g class="node" id="node16"><title>Xenix</title>
<polygon fill="coral" stroke="coral" points="318.956,-843.943 285.058,-845.697 245.355,-837.391 223.105,-823.891 225.309,-809.445 250.676,-802.515 290.379,-810.821 321.16,-829.497 318.956,-843.943" />
<text font-family="Helvetica-Outline" font-size="14" text-anchor="middle" x="270" y="-821.2">Xenix</text>
</g>
<!-- 7th Edition&#45;&gt;Xenix -->
<g class="edge" id="edge15"><title>7th Edition-&gt;Xenix</title>
<path fill="none" stroke="black" d="M 374.49 -898.985 C 354.558 -885.139 327.051 -866.031 305.263 -850.896" />
<polygon fill="black" stroke="black" points="307.13,-847.931 296.92,-845.1 303.136,-853.68 307.13,-847.931" />
</g>
<!-- UniPlus+ -->
<g class="node" id="node17"><title>UniPlus+</title>
<polygon fill="#a2cd5a" stroke="#a2cd5a" points="510.657,-839.621 476.693,-850.22 390.917,-836.368 339.843,-814.257 383.852,-806.298 458.126,-810.159 498.912,-820.877 510.657,-839.621" />
<text font-family="Helvetica-Outline" font-size="14" text-anchor="middle" x="437" y="-821.2">UniPlus+</text>
</g>
<!-- 7th Edition&#45;&gt;UniPlus+ -->
<g class="edge" id="edge16"><title>7th Edition-&gt;UniPlus+</title>
<path fill="none" stroke="black" d="M 408.459 -898.545 C 413.747 -885.178 420.909 -867.076 426.735 -852.348" />
<polygon fill="black" stroke="black" points="430.092,-853.377 430.516,-842.791 423.583,-850.802 430.092,-853.377" />
</g>
<!-- 9th Edition -->
<g class="node" id="node18"><title>9th Edition</title>
<polygon fill="#cd5b45" stroke="#cd5b45" points="826.345,-393.211 785.368,-402.982 733.334,-393.683 712.676,-373.629 742.198,-359.233 794.975,-359.439 830.104,-373.624 826.345,-393.211" />
<text font-family="Helvetica-Outline" font-size="14" text-anchor="middle" x="775" y="-375.2">9th Edition</text>
</g>
<!-- 8th Edition&#45;&gt;9th Edition -->
<g class="edge" id="edge18"><title>8th Edition-&gt;9th Edition</title>
<path fill="none" stroke="black" d="M 748.207 -455.096 C 752.758 -442.408 759.048 -424.871 764.39 -409.978" />
<polygon fill="black" stroke="black" points="767.822,-410.777 767.904,-400.182 761.233,-408.413 767.822,-410.777" />
</g>
<!-- 3 BSD -->
<g class="node" id="node22"><title>3 BSD</title>
<polygon fill="lemonchiffon" stroke="lemonchiffon" points="636.594,-729.279 636,-740.72 616.689,-749.366 582.603,-751.4 548.072,-746.241 530.534,-736.495 538,-726.08 564.182,-718.461 595.644,-716.034 621.681,-719.924 636.594,-729.279" />
<text font-family="Helvetica-Outline" font-size="14" text-anchor="middle" x="587" y="-729.2">3 BSD</text>
</g>
<!-- 32V&#45;&gt;3 BSD -->
<g class="edge" id="edge23"><title>32V-&gt;3 BSD</title>
<path fill="none" stroke="black" d="M 600.802 -807.472 C 598.357 -794.524 594.936 -776.413 592.112 -761.462" />
<polygon fill="black" stroke="black" points="595.479,-760.429 590.183,-751.252 588.6,-761.728 595.479,-760.429" />
</g>
<!-- V7M&#45;&gt;Ultrix&#45;11 -->
<g class="edge" id="edge17"><title>V7M-&gt;Ultrix-11</title>
<path fill="none" stroke="black" d="M 53.8326 -713.193 C 53.8693 -678.121 55.5357 -601.509 68 -538.4 C 77.451 -490.548 97.0674 -437.059 109.321 -406.203" />
<polygon fill="black" stroke="black" points="112.68,-407.231 113.169,-396.648 106.187,-404.616 112.68,-407.231" />
</g>
<!-- 2.8 BSD -->
<g class="node" id="node20"><title>2.8 BSD</title>
<polygon fill="#b0e2ff" stroke="#b0e2ff" points="289.776,-490.6 230.896,-475.085 282.804,-453.19 364.525,-474.724 289.776,-490.6" />
<text font-family="Helvetica-Outline" font-size="14" text-anchor="middle" x="292" y="-469.2">2.8 BSD</text>
</g>
<!-- 2 BSD&#45;&gt;2.8 BSD -->
<g class="edge" id="edge20"><title>2 BSD-&gt;2.8 BSD</title>
<path fill="none" stroke="black" d="M 145.01 -551.313 C 175.793 -535.206 228.054 -507.86 261.256 -490.487" />
<polygon fill="black" stroke="black" points="263.255,-493.391 270.493,-485.654 260.01,-487.189 263.255,-493.391" />
</g>
<!-- 2.8 BSD&#45;&gt;Ultrix&#45;11 -->
<g class="edge" id="edge21"><title>2.8 BSD-&gt;Ultrix-11</title>
<path fill="none" stroke="black" d="M 267.721 -459.414 C 239.027 -444.066 190.958 -418.354 157.475 -400.445" />
<polygon fill="black" stroke="black" points="158.915,-397.246 148.447,-395.616 155.614,-403.419 158.915,-397.246" />
</g>
<!-- 2.9 BSD -->
<g class="node" id="node21"><title>2.9 BSD</title>
<polygon fill="#76eec6" stroke="#76eec6" points="261.871,-393.991 224.813,-366.317 303.09,-350.59 378.226,-406.701 261.871,-393.991" />
<text font-family="Helvetica-Outline" font-size="14" text-anchor="middle" x="292" y="-375.2">2.9 BSD</text>
</g>
<!-- 2.8 BSD&#45;&gt;2.9 BSD -->
<g class="edge" id="edge22"><title>2.8 BSD-&gt;2.9 BSD</title>
<path fill="none" stroke="black" d="M 292 -455.526 C 292 -442.123 292 -423.116 292 -407.574" />
<polygon fill="black" stroke="black" points="295.5,-407.479 292,-397.479 288.5,-407.479 295.5,-407.479" />
</g>
<!-- 4 BSD -->
<g class="node" id="node23"><title>4 BSD</title>
<polygon fill="#ff7f00" stroke="#ff7f00" points="601.478,-661.966 542.865,-665.803 512.078,-646.972 532.224,-628.236 626.356,-644.023 601.478,-661.966" />
<text font-family="Helvetica-Outline" font-size="14" text-anchor="middle" x="563" y="-645.2">4 BSD</text>
</g>
<!-- 3 BSD&#45;&gt;4 BSD -->
<g class="edge" id="edge24"><title>3 BSD-&gt;4 BSD</title>
<path fill="none" stroke="black" d="M 582.486 -716.976 C 578.958 -704.924 573.994 -687.963 569.959 -674.177" />
<polygon fill="black" stroke="black" points="573.262,-673.001 567.094,-664.387 566.544,-674.968 573.262,-673.001" />
</g>
<!-- 4.1 BSD -->
<g class="node" id="node24"><title>4.1 BSD</title>
<polygon fill="#ffffe0" stroke="#ffffe0" points="542.242,-585.819 462.732,-568.949 489.965,-542.478 593.06,-564.353 542.242,-585.819" />
<text font-family="Helvetica-Outline" font-size="14" text-anchor="middle" x="522" y="-561.2">4.1 BSD</text>
</g>
<!-- 4 BSD&#45;&gt;4.1 BSD -->
<g class="edge" id="edge25"><title>4 BSD-&gt;4.1 BSD</title>
<path fill="none" stroke="black" d="M 554.703 -631.806 C 549.109 -620.618 541.609 -605.619 535.203 -592.806" />
<polygon fill="black" stroke="black" points="538.17,-590.913 530.567,-583.534 531.909,-594.043 538.17,-590.913" />
</g>
<!-- 4.1 BSD&#45;&gt;8th Edition -->
<g class="edge" id="edge28"><title>4.1 BSD-&gt;8th Edition</title>
<path fill="none" stroke="black" d="M 546.384 -554.425 C 584.74 -538.734 659.44 -508.175 704.612 -489.695" />
<polygon fill="black" stroke="black" points="706.123,-492.859 714.053,-485.833 703.472,-486.38 706.123,-492.859" />
</g>
<!-- 4.1 BSD&#45;&gt;2.8 BSD -->
<g class="edge" id="edge27"><title>4.1 BSD-&gt;2.8 BSD</title>
<path fill="none" stroke="black" d="M 482.984 -549.133 C 439.557 -532.14 369.965 -504.908 327.859 -488.432" />
<polygon fill="black" stroke="black" points="328.877,-485.072 318.289,-484.687 326.326,-491.591 328.877,-485.072" />
</g>
<!-- 4.2 BSD -->
<g class="node" id="node25"><title>4.2 BSD</title>
<polygon fill="#68228b" stroke="#68228b" points="600.252,-496.543 572.681,-500.988 521.168,-494.895 474.397,-484.556 446.792,-472.406 437.763,-458.186 447.319,-445.812 480.817,-443.976 534.469,-457.343 584.342,-479.294 600.252,-496.543" />
<text font-family="Helvetica-Outline" font-size="14" text-anchor="middle" x="510" y="-469.2">4.2 BSD</text>
</g>
<!-- 4.1 BSD&#45;&gt;4.2 BSD -->
<g class="edge" id="edge26"><title>4.1 BSD-&gt;4.2 BSD</title>
<path fill="none" stroke="black" d="M 519.91 -548.723 C 518.229 -536.12 515.824 -518.081 513.804 -502.932" />
<polygon fill="black" stroke="black" points="517.272,-502.457 512.481,-493.007 510.333,-503.382 517.272,-502.457" />
</g>
<!-- 4.3 BSD -->
<g class="node" id="node26"><title>4.3 BSD</title>
<polygon fill="#eee9bf" stroke="#eee9bf" points="686.848,-392.087 663.456,-404.244 633.013,-406.911 607.29,-399.258 596.057,-384.137 603.432,-367.09 626.544,-354.556 656.706,-351.512 682.537,-359.309 694.116,-374.896 686.848,-392.087" />
<text font-family="Helvetica-Outline" font-size="14" text-anchor="middle" x="645" y="-375.2">4.3 BSD</text>
</g>
<!-- 4.2 BSD&#45;&gt;4.3 BSD -->
<g class="edge" id="edge29"><title>4.2 BSD-&gt;4.3 BSD</title>
<path fill="none" stroke="black" d="M 532.901 -456.793 C 552.733 -443.279 581.861 -423.428 605.455 -407.349" />
<polygon fill="black" stroke="black" points="607.577,-410.139 613.869,-401.615 603.635,-404.354 607.577,-410.139" />
</g>
<!-- Ultrix&#45;32 -->
<g class="node" id="node27"><title>Ultrix-32</title>
<polygon fill="#cd9b1d" stroke="#cd9b1d" points="517.422,-396.173 436.455,-387.749 416.713,-358.479 577.41,-375.199 517.422,-396.173" />
<text font-family="Helvetica-Outline" font-size="14" text-anchor="middle" x="487" y="-375.2">Ultrix-32</text>
</g>
<!-- 4.2 BSD&#45;&gt;Ultrix&#45;32 -->
<g class="edge" id="edge30"><title>4.2 BSD-&gt;Ultrix-32</title>
<path fill="none" stroke="black" d="M 504.315 -449.658 C 500.795 -435.581 496.29 -417.56 492.757 -403.429" />
<polygon fill="black" stroke="black" points="496.099,-402.364 490.278,-393.511 489.308,-404.061 496.099,-402.364" />
</g>
<!-- PWB 1.2&#45;&gt;PWB 2.0 -->
<g class="edge" id="edge33"><title>PWB 1.2-&gt;PWB 2.0</title>
<path fill="none" stroke="black" d="M 959.599 -986.966 C 935.088 -973.002 905.282 -956.021 881.682 -942.576" />
<polygon fill="black" stroke="black" points="883.386,-939.519 872.965,-937.61 879.921,-945.602 883.386,-939.519" />
</g>
<!-- CB Unix 1 -->
<g class="node" id="node30"><title>CB Unix 1</title>
<polygon fill="firebrick" stroke="firebrick" points="1344.43,-926.397 1330.37,-938.752 1291.74,-942.225 1250.89,-936.392 1220.38,-922.141 1207.95,-904.296 1223.68,-892.411 1268.25,-894.306 1319.31,-908.679 1344.43,-926.397" />
<text font-family="Helvetica-Outline" font-size="14" text-anchor="middle" x="1273" y="-914.2">CB Unix 1</text>
</g>
<!-- USG 1.0&#45;&gt;CB Unix 1 -->
<g class="edge" id="edge34"><title>USG 1.0-&gt;CB Unix 1</title>
<path fill="none" stroke="black" d="M 1190.35 -1000.33 C 1205.04 -985.94 1229.02 -962.464 1247.37 -944.493" />
<polygon fill="black" stroke="black" points="1250.16,-946.668 1254.85,-937.17 1245.26,-941.666 1250.16,-946.668" />
</g>
<!-- USG 2.0 -->
<g class="node" id="node31"><title>USG 2.0</title>
<polygon fill="#458b00" stroke="#458b00" points="1028.37,-945.38 969.111,-890.514 1083.59,-904.346 1114.93,-933.359 1028.37,-945.38" />
<text font-family="Helvetica-Outline" font-size="14" text-anchor="middle" x="1049" y="-914.2">USG 2.0</text>
</g>
<!-- USG 1.0&#45;&gt;USG 2.0 -->
<g class="edge" id="edge35"><title>USG 1.0-&gt;USG 2.0</title>
<path fill="none" stroke="black" d="M 1159.47 -1000.53 C 1140.12 -986.314 1108.46 -963.066 1083.99 -945.093" />
<polygon fill="black" stroke="black" points="1085.79,-942.077 1075.66,-938.979 1081.65,-947.719 1085.79,-942.077" />
</g>
<!-- CB Unix 2 -->
<g class="node" id="node32"><title>CB Unix 2</title>
<polygon fill="greenyellow" stroke="greenyellow" points="1363.31,-823.848 1372.06,-838.071 1356.35,-847.454 1307.63,-845.537 1250.06,-834.151 1223.61,-821.2 1243.94,-812.729 1288.73,-809.098 1326.35,-808.818 1347.97,-813.094 1363.31,-823.848" />
<text font-family="Helvetica-Outline" font-size="14" text-anchor="middle" x="1308" y="-821.2">CB Unix 2</text>
</g>
<!-- CB Unix 1&#45;&gt;CB Unix 2 -->
<g class="edge" id="edge36"><title>CB Unix 1-&gt;CB Unix 2</title>
<path fill="none" stroke="black" d="M 1280.59 -897.654 C 1285.51 -884.867 1291.99 -868.033 1297.41 -853.938" />
<polygon fill="black" stroke="black" points="1300.81,-854.846 1301.13,-844.257 1294.28,-852.334 1300.81,-854.846" />
</g>
<!-- USG 3.0 -->
<g class="node" id="node36"><title>USG 3.0</title>
<polygon fill="#eed5b7" stroke="#eed5b7" points="914.279,-843.608 852.377,-827.786 868.376,-796.624 1012.97,-833.582 914.279,-843.608" />
<text font-family="Helvetica-Outline" font-size="14" text-anchor="middle" x="912" y="-821.2">USG 3.0</text>
</g>
<!-- USG 2.0&#45;&gt;USG 3.0 -->
<g class="edge" id="edge40"><title>USG 2.0-&gt;USG 3.0</title>
<path fill="none" stroke="black" d="M 1017.23 -896.294 C 995.034 -881.554 965.543 -861.965 943.429 -847.276" />
<polygon fill="black" stroke="black" points="945.313,-844.326 935.047,-841.708 941.44,-850.157 945.313,-844.326" />
</g>
<!-- CB Unix 3 -->
<g class="node" id="node33"><title>CB Unix 3</title>
<polygon fill="#8b7d6b" stroke="#8b7d6b" points="1274.51,-731.737 1294.73,-747.224 1284.5,-757.43 1230.24,-755.426 1159.35,-743.135 1120.52,-729 1135.27,-719.576 1180.47,-715.433 1221.38,-715.121 1249.04,-719.917 1274.51,-731.737" />
<text font-family="Helvetica-Outline" font-size="14" text-anchor="middle" x="1215" y="-729.2">CB Unix 3</text>
</g>
<!-- CB Unix 2&#45;&gt;CB Unix 3 -->
<g class="edge" id="edge37"><title>CB Unix 2-&gt;CB Unix 3</title>
<path fill="none" stroke="black" d="M 1291.8 -808.723 C 1278.83 -796.172 1260.29 -778.23 1244.68 -763.119" />
<polygon fill="black" stroke="black" points="1246.9,-760.404 1237.28,-755.964 1242.04,-765.434 1246.9,-760.404" />
</g>
<!-- Unix/TS++ -->
<g class="node" id="node34"><title>Unix/TS++</title>
<polygon fill="#eed5d2" stroke="#eed5d2" points="1174.34,-655.903 1138.19,-669.172 1031.76,-660.766 1009.66,-642.897 1069.9,-631.531 1128.15,-636.132 1174.34,-655.903" />
<text font-family="Helvetica-Outline" font-size="14" text-anchor="middle" x="1092" y="-645.2">Unix/TS++</text>
</g>
<!-- CB Unix 3&#45;&gt;Unix/TS++ -->
<g class="edge" id="edge38"><title>CB Unix 3-&gt;Unix/TS++</title>
<path fill="none" stroke="black" d="M 1189.22 -715.21 C 1170.93 -703.019 1146.2 -686.53 1126.25 -673.235" />
<polygon fill="black" stroke="black" points="1128.01,-670.202 1117.75,-667.567 1124.13,-676.026 1128.01,-670.202" />
</g>
<!-- PDP&#45;11 Sys V -->
<g class="node" id="node35"><title>PDP-11 Sys V</title>
<polygon fill="#98f5ff" stroke="#98f5ff" points="1361.06,-654.13 1333.85,-664.667 1282.44,-668.534 1235.44,-664.813 1207.88,-653.88 1205.72,-639.486 1234.5,-629.257 1289.28,-629.653 1342.84,-640.18 1361.06,-654.13" />
<text font-family="Helvetica-Outline" font-size="14" text-anchor="middle" x="1277" y="-645.2">PDP-11 Sys V</text>
</g>
<!-- CB Unix 3&#45;&gt;PDP&#45;11 Sys V -->
<g class="edge" id="edge39"><title>CB Unix 3-&gt;PDP-11 Sys V</title>
<path fill="none" stroke="black" d="M 1227.55 -715.806 C 1236.31 -704.213 1248.17 -688.526 1258.08 -675.421" />
<polygon fill="black" stroke="black" points="1261.02,-677.338 1264.26,-667.251 1255.44,-673.116 1261.02,-677.338" />
</g>
<!-- CB Unix 3&#45;&gt;TS 4.0 -->
<g class="edge" id="edge46"><title>CB Unix 3-&gt;TS 4.0</title>
<path fill="none" stroke="black" d="M 1122.55 -727.545 C 1079.45 -720.423 1030.95 -704.61 1000 -670.4 C 981.398 -649.837 978.134 -617.325 978.584 -594.128" />
<polygon fill="black" stroke="black" points="982.091,-594.036 979.031,-583.893 975.098,-593.73 982.091,-594.036" />
</g>
<!-- Unix/TS++&#45;&gt;TS 4.0 -->
<g class="edge" id="edge45"><title>Unix/TS++-&gt;TS 4.0</title>
<path fill="none" stroke="black" d="M 1069.27 -631.608 C 1055.12 -621.154 1036.54 -607.429 1020.08 -595.268" />
<polygon fill="black" stroke="black" points="1021.82,-592.204 1011.7,-589.077 1017.66,-597.834 1021.82,-592.204" />
</g>
<!-- USG 3.0&#45;&gt;Unix/TS 3.0 -->
<g class="edge" id="edge41"><title>USG 3.0-&gt;Unix/TS 3.0</title>
<path fill="none" stroke="black" d="M 912 -807.472 C 912 -795.179 912 -778.234 912 -763.756" />
<polygon fill="black" stroke="black" points="915.5,-763.752 912,-753.752 908.5,-763.752 915.5,-763.752" />
</g>
<!-- Unix/TS 1.0 -->
<g class="node" id="node37"><title>Unix/TS 1.0</title>
<polygon fill="orangered" stroke="orangered" points="1076.15,-844.939 1031.59,-813.324 1167.34,-811.18 1196.91,-832.157 1076.15,-844.939" />
<text font-family="Helvetica-Outline" font-size="14" text-anchor="middle" x="1118" y="-821.2">Unix/TS 1.0</text>
</g>
<!-- Unix/TS 1.0&#45;&gt;Unix/TS 3.0 -->
<g class="edge" id="edge43"><title>Unix/TS 1.0-&gt;Unix/TS 3.0</title>
<path fill="none" stroke="black" d="M 1090.22 -812.262 C 1061.46 -799.7 1015.52 -779.626 977.478 -763.007" />
<polygon fill="black" stroke="black" points="978.558,-759.659 967.993,-758.863 975.755,-766.074 978.558,-759.659" />
</g>
<!-- System V.0 -->
<g class="node" id="node39"><title>System V.0</title>
<polygon fill="#ff7f00" stroke="#ff7f00" points="1067.23,-475.399 1043.35,-486.472 990.115,-491.4 932.07,-487.825 896.92,-477.5 901.655,-465.337 943.705,-456.976 1002.73,-456.228 1051.23,-463.463 1067.23,-475.399" />
<text font-family="Helvetica-Outline" font-size="14" text-anchor="middle" x="981" y="-469.2">System V.0</text>
</g>
<!-- TS 4.0&#45;&gt;System V.0 -->
<g class="edge" id="edge47"><title>TS 4.0-&gt;System V.0</title>
<path fill="none" stroke="black" d="M 981 -543.978 C 981 -531.373 981 -515.058 981 -501.395" />
<polygon fill="black" stroke="black" points="984.5,-501.127 981,-491.127 977.5,-501.127 984.5,-501.127" />
</g>
<!-- System V.2 -->
<g class="node" id="node40"><title>System V.2</title>
<polygon fill="#6e8b3d" stroke="#6e8b3d" points="1080.64,-396.266 1008.24,-402.73 867.958,-378.986 881.357,-362.534 994.399,-362.948 1053.41,-372.936 1080.64,-396.266" />
<text font-family="Helvetica-Outline" font-size="14" text-anchor="middle" x="981" y="-375.2">System V.2</text>
</g>
<!-- System V.0&#45;&gt;System V.2 -->
<g class="edge" id="edge48"><title>System V.0-&gt;System V.2</title>
<path fill="none" stroke="black" d="M 981 -456.375 C 981 -443.157 981 -424.09 981 -408.365" />
<polygon fill="black" stroke="black" points="984.5,-408.125 981,-398.125 977.5,-408.125 984.5,-408.125" />
</g>
<!-- System V.3 -->
<g class="node" id="node41"><title>System V.3</title>
<polygon fill="#cae1ff" stroke="#cae1ff" points="1044.39,-309.912 970.985,-307.137 920.939,-298.497 916.121,-283.759 944.343,-267.284 1007.21,-271.214 1063.02,-294.996 1044.39,-309.912" />
<text font-family="Helvetica-Outline" font-size="14" text-anchor="middle" x="981" y="-286.2">System V.3</text>
</g>
<!-- System V.2&#45;&gt;System V.3 -->
<g class="edge" id="edge49"><title>System V.2-&gt;System V.3</title>
<path fill="none" stroke="black" d="M 981 -362.846 C 981 -350.339 981 -332.488 981 -317.758" />
<polygon fill="black" stroke="black" points="984.5,-317.705 981,-307.705 977.5,-317.705 984.5,-317.705" />
</g>
</g>
</svg>