<svg xmlns="http://www.w3.org/2000/svg" viewBox="0 0 812 576.55" width="812pt" height="577pt">
<g class="graph" id="graph0" transform="scale(1) rotate(0) translate(4 572.551)">
<title>g</title>
<polygon fill="white" stroke="none" points="-4,4 -4,-572.551 808,-572.551 808,4 -4,4" />
<!-- node0 -->
<g class="node" id="node1"><title>node0</title>
<polygon fill="none" stroke="black" points="0.4488,-454.8 0.4488,-509.2 71.5512,-509.2 71.5512,-454.8 0.4488,-454.8" />
<text font-family="Times,serif" font-size="16" text-anchor="middle" x="36" y="-490.8">0x10ba8</text>
<polyline fill="none" stroke="black" points="0.4488,-482 71.5512,-482" />
<text font-family="Times,serif" font-size="16" text-anchor="middle" x="36" y="-463.6"> </text>
</g>
<!-- node1 -->
<g class="node" id="node2"><title>node1</title>
<polygon fill="none" stroke="black" points="108.122,-450.6 108.122,-559.4 197.878,-559.4 197.878,-450.6 108.122,-450.6" />
<text font-family="Times,serif" font-size="16" text-anchor="middle" x="153" y="-541">0xf7fc4380</text>
<polyline fill="none" stroke="black" points="108.122,-532.2 197.878,-532.2" />
<text font-family="Times,serif" font-size="16" text-anchor="middle" x="153" y="-513.8"> </text>
<polyline fill="none" stroke="black" points="108.122,-505 197.878,-505" />
<text font-family="Times,serif" font-size="16" text-anchor="middle" x="153" y="-486.6"> </text>
<polyline fill="none" stroke="black" points="108.122,-477.8 197.878,-477.8" />
<text font-family="Times,serif" font-size="16" text-anchor="middle" x="153" y="-459.4">-1</text>
</g>
<!-- node0&#45;&gt;node1 -->
<g class="edge" id="0"><title>node0:f0-&gt;node1:f0</title>
<path fill="none" stroke="black" d="M 72 -496 C 95.1044 -496 85.3547 -531.596 98.1922 -542.719" />
<polygon fill="black" stroke="black" points="97.4062,-546.147 108,-546 99.6267,-539.509 97.4062,-546.147" />
</g>
<!-- node2 -->
<g class="node" id="node3"><title>node2</title>
<polygon fill="none" stroke="black" points="108.122,-322.6 108.122,-431.4 197.878,-431.4 197.878,-322.6 108.122,-322.6" />
<text font-family="Times,serif" font-size="16" text-anchor="middle" x="153" y="-413">0xf7fc44b8</text>
<polyline fill="none" stroke="black" points="108.122,-404.2 197.878,-404.2" />
<text font-family="Times,serif" font-size="16" text-anchor="middle" x="153" y="-385.8"> </text>
<polyline fill="none" stroke="black" points="108.122,-377 197.878,-377" />
<text font-family="Times,serif" font-size="16" text-anchor="middle" x="153" y="-358.6"> </text>
<polyline fill="none" stroke="black" points="108.122,-349.8 197.878,-349.8" />
<text font-family="Times,serif" font-size="16" text-anchor="middle" x="153" y="-331.4">2</text>
</g>
<!-- node0&#45;&gt;node2 -->
<g class="edge" id="1"><title>node0:f1-&gt;node2:f0</title>
<path fill="none" stroke="black" d="M 72 -468 C 95.1044 -468 85.3547 -432.404 98.1922 -421.281" />
<polygon fill="black" stroke="black" points="99.6267,-424.491 108,-418 97.4062,-417.853 99.6267,-424.491" />
</g>
<!-- node3 -->
<g class="node" id="node4"><title>node3</title>
<polygon fill="none" stroke="black" points="611.786,-473.2 611.786,-554.8 804.214,-554.8 804.214,-473.2 611.786,-473.2" />
<text font-family="Times,serif" font-size="16" text-anchor="middle" x="708" y="-536.4">3.43322790286038071e-06</text>
<polyline fill="none" stroke="black" points="611.786,-527.6 804.214,-527.6" />
<text font-family="Times,serif" font-size="16" text-anchor="middle" x="708" y="-509.2">44.79998779296875</text>
<polyline fill="none" stroke="black" points="611.786,-500.4 804.214,-500.4" />
<text font-family="Times,serif" font-size="16" text-anchor="middle" x="708" y="-482">0</text>
</g>
<!-- node1&#45;&gt;node3 -->
<g class="edge" id="2"><title>node1:f0-&gt;node3:f0</title>
<path fill="none" stroke="black" d="M 198 -546 C 215.889 -546 216.59 -559.89 234 -564 C 272.93 -573.19 284.015 -565.11 324 -564 C 436.13 -560.888 465.091 -566.789 576 -550 C 588.357 -548.129 593.188 -543.925 601.981 -541.999" />
<polygon fill="black" stroke="black" points="602.397,-545.475 612,-541 601.702,-538.509 602.397,-545.475" />
</g>
<!-- node4 -->
<g class="node" id="node5"><title>node4</title>
<polygon fill="none" stroke="black" points="234.122,-423.6 234.122,-532.4 323.878,-532.4 323.878,-423.6 234.122,-423.6" />
<text font-family="Times,serif" font-size="16" text-anchor="middle" x="279" y="-514">0xf7fc4380</text>
<polyline fill="none" stroke="black" points="234.122,-505.2 323.878,-505.2" />
<text font-family="Times,serif" font-size="16" text-anchor="middle" x="279" y="-486.8"> </text>
<polyline fill="none" stroke="black" points="234.122,-478 323.878,-478" />
<text font-family="Times,serif" font-size="16" text-anchor="middle" x="279" y="-459.6"> </text>
<polyline fill="none" stroke="black" points="234.122,-450.8 323.878,-450.8" />
<text font-family="Times,serif" font-size="16" text-anchor="middle" x="279" y="-432.4">2</text>
</g>
<!-- node1&#45;&gt;node4 -->
<g class="edge" id="3"><title>node1:f1-&gt;node4:f0</title>
<path fill="none" stroke="black" d="M 198 -519 C 210 -519 215.25 -519 223.875 -519" />
<polygon fill="black" stroke="black" points="224,-522.5 234,-519 224,-515.5 224,-522.5" />
</g>
<!-- node5 -->
<g class="node" id="node6"><title>node5</title>
<polygon fill="none" stroke="black" points="252,-73.6 252,-182.4 306,-182.4 306,-73.6 252,-73.6" />
<text font-family="Times,serif" font-size="16" text-anchor="middle" x="279" y="-164">(nil)</text>
<polyline fill="none" stroke="black" points="252,-155.2 306,-155.2" />
<text font-family="Times,serif" font-size="16" text-anchor="middle" x="279" y="-136.8"> </text>
<polyline fill="none" stroke="black" points="252,-128 306,-128" />
<text font-family="Times,serif" font-size="16" text-anchor="middle" x="279" y="-109.6"> </text>
<polyline fill="none" stroke="black" points="252,-100.8 306,-100.8" />
<text font-family="Times,serif" font-size="16" text-anchor="middle" x="279" y="-82.4">-1</text>
</g>
<!-- node1&#45;&gt;node5 -->
<g class="edge" id="4"><title>node1:f2-&gt;node5:f0</title>
<path fill="none" stroke="black" d="M 198 -491 C 263.821 -491 191.823 -247.533 234 -197 C 244.066 -184.94 264.346 -194.877 273.856 -191.763" />
<polygon fill="black" stroke="black" points="276.956,-193.396 279,-183 270.919,-189.852 276.956,-193.396" />
</g>
<!-- node4&#45;&gt;node3 -->
<g class="edge" id="5"><title>node4:f0-&gt;node3:f0</title>
<path fill="none" stroke="black" d="M 324 -519 C 448.863 -519 481.845 -539.813 601.683 -540.952" />
<polygon fill="black" stroke="black" points="601.984,-544.453 612,-541 602.017,-537.453 601.984,-544.453" />
</g>
<!-- node6 -->
<g class="node" id="node7"><title>node6</title>
<polygon fill="none" stroke="black" points="360.122,-396.6 360.122,-505.4 449.878,-505.4 449.878,-396.6 360.122,-396.6" />
<text font-family="Times,serif" font-size="16" text-anchor="middle" x="405" y="-487">0xf7fc4380</text>
<polyline fill="none" stroke="black" points="360.122,-478.2 449.878,-478.2" />
<text font-family="Times,serif" font-size="16" text-anchor="middle" x="405" y="-459.8"> </text>
<polyline fill="none" stroke="black" points="360.122,-451 449.878,-451" />
<text font-family="Times,serif" font-size="16" text-anchor="middle" x="405" y="-432.6"> </text>
<polyline fill="none" stroke="black" points="360.122,-423.8 449.878,-423.8" />
<text font-family="Times,serif" font-size="16" text-anchor="middle" x="405" y="-405.4">1</text>
</g>
<!-- node4&#45;&gt;node6 -->
<g class="edge" id="6"><title>node4:f1-&gt;node6:f0</title>
<path fill="none" stroke="black" d="M 324 -492 C 336 -492 341.25 -492 349.875 -492" />
<polygon fill="black" stroke="black" points="350,-495.5 360,-492 350,-488.5 350,-495.5" />
</g>
<!-- node10 -->
<g class="node" id="node11"><title>node10</title>
<polygon fill="none" stroke="black" points="378,-239.6 378,-348.4 432,-348.4 432,-239.6 378,-239.6" />
<text font-family="Times,serif" font-size="16" text-anchor="middle" x="405" y="-330">(nil)</text>
<polyline fill="none" stroke="black" points="378,-321.2 432,-321.2" />
<text font-family="Times,serif" font-size="16" text-anchor="middle" x="405" y="-302.8"> </text>
<polyline fill="none" stroke="black" points="378,-294 432,-294" />
<text font-family="Times,serif" font-size="16" text-anchor="middle" x="405" y="-275.6"> </text>
<polyline fill="none" stroke="black" points="378,-266.8 432,-266.8" />
<text font-family="Times,serif" font-size="16" text-anchor="middle" x="405" y="-248.4">-1</text>
</g>
<!-- node4&#45;&gt;node10 -->
<g class="edge" id="7"><title>node4:f2-&gt;node10:f0</title>
<path fill="none" stroke="black" d="M 324 -464 C 382.11 -464 323.368 -350.621 366.871 -336.449" />
<polygon fill="black" stroke="black" points="367.596,-339.881 377,-335 366.605,-332.951 367.596,-339.881" />
</g>
<!-- node6&#45;&gt;node3 -->
<g class="edge" id="8"><title>node6:f0-&gt;node3:f0</title>
<path fill="none" stroke="black" d="M 450 -492 C 466.675 -492 566.368 -530.527 601.851 -539.256" />
<polygon fill="black" stroke="black" points="601.552,-542.756 612,-541 602.737,-535.857 601.552,-542.756" />
</g>
<!-- node7 -->
<g class="node" id="node8"><title>node7</title>
<polygon fill="none" stroke="black" points="486.122,-383.6 486.122,-492.4 575.878,-492.4 575.878,-383.6 486.122,-383.6" />
<text font-family="Times,serif" font-size="16" text-anchor="middle" x="531" y="-474">0xf7fc4380</text>
<polyline fill="none" stroke="black" points="486.122,-465.2 575.878,-465.2" />
<text font-family="Times,serif" font-size="16" text-anchor="middle" x="531" y="-446.8"> </text>
<polyline fill="none" stroke="black" points="486.122,-438 575.878,-438" />
<text font-family="Times,serif" font-size="16" text-anchor="middle" x="531" y="-419.6"> </text>
<polyline fill="none" stroke="black" points="486.122,-410.8 575.878,-410.8" />
<text font-family="Times,serif" font-size="16" text-anchor="middle" x="531" y="-392.4">2</text>
</g>
<!-- node6&#45;&gt;node7 -->
<g class="edge" id="9"><title>node6:f1-&gt;node7:f0</title>
<path fill="none" stroke="black" d="M 450 -465 C 463.144 -465 467.2 -473.207 476.085 -477.053" />
<polygon fill="black" stroke="black" points="475.513,-480.508 486,-479 476.862,-473.639 475.513,-480.508" />
</g>
<!-- node9 -->
<g class="node" id="node10"><title>node9</title>
<polygon fill="none" stroke="black" points="504,-255.6 504,-364.4 558,-364.4 558,-255.6 504,-255.6" />
<text font-family="Times,serif" font-size="16" text-anchor="middle" x="531" y="-346">(nil)</text>
<polyline fill="none" stroke="black" points="504,-337.2 558,-337.2" />
<text font-family="Times,serif" font-size="16" text-anchor="middle" x="531" y="-318.8"> </text>
<polyline fill="none" stroke="black" points="504,-310 558,-310" />
<text font-family="Times,serif" font-size="16" text-anchor="middle" x="531" y="-291.6"> </text>
<polyline fill="none" stroke="black" points="504,-282.8 558,-282.8" />
<text font-family="Times,serif" font-size="16" text-anchor="middle" x="531" y="-264.4">-1</text>
</g>
<!-- node6&#45;&gt;node9 -->
<g class="edge" id="10"><title>node6:f2-&gt;node9:f0</title>
<path fill="none" stroke="black" d="M 450 -437 C 491.039 -437 463.823 -365.146 493.131 -352.796" />
<polygon fill="black" stroke="black" points="493.788,-356.234 503,-351 492.535,-349.347 493.788,-356.234" />
</g>
<!-- node7&#45;&gt;node1 -->
<g class="edge" id="12"><title>node7:f1-&gt;node1:f0</title>
<path fill="none" stroke="black" d="M 486 -452 C 454.136 -452 475.786 -495.281 450 -514 C 361.401 -578.316 313.83 -547.986 208.077 -546.091" />
<polygon fill="black" stroke="black" points="208.031,-542.59 198,-546 207.968,-549.59 208.031,-542.59" />
</g>
<!-- node7&#45;&gt;node3 -->
<g class="edge" id="11"><title>node7:f0-&gt;node3:f0</title>
<path fill="none" stroke="black" d="M 576 -479 C 603.632 -479 586.45 -525.625 602.178 -538.01" />
<polygon fill="black" stroke="black" points="601.414,-541.435 612,-541 603.453,-534.739 601.414,-541.435" />
</g>
<!-- node8 -->
<g class="node" id="node9"><title>node8</title>
<polygon fill="none" stroke="black" points="681,-328.6 681,-437.4 735,-437.4 735,-328.6 681,-328.6" />
<text font-family="Times,serif" font-size="16" text-anchor="middle" x="708" y="-419">(nil)</text>
<polyline fill="none" stroke="black" points="681,-410.2 735,-410.2" />
<text font-family="Times,serif" font-size="16" text-anchor="middle" x="708" y="-391.8"> </text>
<polyline fill="none" stroke="black" points="681,-383 735,-383" />
<text font-family="Times,serif" font-size="16" text-anchor="middle" x="708" y="-364.6"> </text>
<polyline fill="none" stroke="black" points="681,-355.8 735,-355.8" />
<text font-family="Times,serif" font-size="16" text-anchor="middle" x="708" y="-337.4">-1</text>
</g>
<!-- node7&#45;&gt;node8 -->
<g class="edge" id="13"><title>node7:f2-&gt;node8:f0</title>
<path fill="none" stroke="black" d="M 576 -424 C 618.611 -424 631.761 -424 669.768 -424" />
<polygon fill="black" stroke="black" points="670,-427.5 680,-424 670,-420.5 670,-427.5" />
</g>
<!-- node11 -->
<g class="node" id="node12"><title>node11</title>
<polygon fill="none" stroke="black" points="504,-127.6 504,-236.4 558,-236.4 558,-127.6 504,-127.6" />
<text font-family="Times,serif" font-size="16" text-anchor="middle" x="531" y="-218">(nil)</text>
<polyline fill="none" stroke="black" points="504,-209.2 558,-209.2" />
<text font-family="Times,serif" font-size="16" text-anchor="middle" x="531" y="-190.8"> </text>
<polyline fill="none" stroke="black" points="504,-182 558,-182" />
<text font-family="Times,serif" font-size="16" text-anchor="middle" x="531" y="-163.6"> </text>
<polyline fill="none" stroke="black" points="504,-154.8 558,-154.8" />
<text font-family="Times,serif" font-size="16" text-anchor="middle" x="531" y="-136.4">-1</text>
</g>
<!-- node10&#45;&gt;node11 -->
<g class="edge" id="14"><title>node10:f1-&gt;node11:f0</title>
<path fill="none" stroke="black" d="M 433 -308 C 478.116 -308 457.948 -235.762 492.863 -224.475" />
<polygon fill="black" stroke="black" points="493.608,-227.904 503,-223 492.6,-220.977 493.608,-227.904" />
</g>
<!-- node12 -->
<g class="node" id="node13"><title>node12</title>
<polygon fill="none" stroke="black" points="486.571,0.4 486.571,-108.4 575.429,-108.4 575.429,0.4 486.571,0.4" />
<text font-family="Times,serif" font-size="16" text-anchor="middle" x="531" y="-90">0xf7fc43e0</text>
<polyline fill="none" stroke="black" points="486.571,-81.2 575.429,-81.2" />
<text font-family="Times,serif" font-size="16" text-anchor="middle" x="531" y="-62.8"> </text>
<polyline fill="none" stroke="black" points="486.571,-54 575.429,-54" />
<text font-family="Times,serif" font-size="16" text-anchor="middle" x="531" y="-35.6"> </text>
<polyline fill="none" stroke="black" points="486.571,-26.8 575.429,-26.8" />
<text font-family="Times,serif" font-size="16" text-anchor="middle" x="531" y="-8.4">1</text>
</g>
<!-- node10&#45;&gt;node12 -->
<g class="edge" id="15"><title>node10:f2-&gt;node12:f0</title>
<path fill="none" stroke="black" d="M 433 -280 C 514.688 -280 410.666 -111.248 475.669 -96.0864" />
<polygon fill="black" stroke="black" points="476.421,-99.5268 486,-95 475.689,-92.5652 476.421,-99.5268" />
</g>
<!-- node11&#45;&gt;node1 -->
<g class="edge" id="16"><title>node11:f2-&gt;node1:f0</title>
<path fill="none" stroke="black" d="M 503 -168 C 340.99 -168 302.03 -266.965 234 -414 C 210.061 -465.739 252.813 -536.483 208.145 -545.124" />
<polygon fill="black" stroke="black" points="207.662,-541.652 198,-546 208.264,-548.627 207.662,-541.652" />
</g>
</g>
</svg>